<svg version="1.1" id="Layer_1" xmlns="http://www.w3.org/2000/svg" xmlns:xlink="http://www.w3.org/1999/xlink" x="0px" y="0px"
	 width="100%" viewBox="450 24 900 910" enable-background="new 0 0 1920 1080" xml:space="preserve">
<path fill="none" opacity="1.000000" stroke="none" 
	d="
M1448.000000,1081.000000 
	C965.333435,1081.000000 483.166840,1081.000000 1.000194,1081.000000 
	C1.000129,721.000122 1.000129,361.000305 1.000065,1.000339 
	C640.999695,1.000226 1280.999390,1.000226 1920.999268,1.000113 
	C1920.999512,360.999664 1920.999512,720.999329 1920.999756,1080.999512 
	C1763.500000,1081.000000 1606.000000,1081.000000 1448.000000,1081.000000 
M917.104492,932.116821 
	C926.377991,931.747131 935.719055,931.949890 944.908020,930.864624 
	C956.708496,929.470764 968.483276,927.485596 980.096252,924.960388 
	C999.665405,920.705200 1019.432556,916.890015 1038.497192,910.914185 
	C1058.440796,904.662781 1078.336548,897.825989 1096.694336,887.296936 
	C1110.784180,879.215820 1125.553467,872.303406 1139.515747,864.020386 
	C1156.643799,853.859375 1173.016479,842.541077 1187.759766,828.969238 
	C1196.324463,821.085205 1205.990234,814.355469 1214.226196,806.166626 
	C1225.238770,795.217041 1235.645142,783.612671 1245.749268,771.807983 
	C1254.277954,761.843750 1262.645386,751.622253 1269.932251,740.742981 
	C1280.183105,725.438171 1290.084229,709.804993 1298.807861,693.597961 
	C1307.417847,677.602417 1314.978394,660.964294 1321.865112,644.143799 
	C1327.188110,631.142334 1331.022827,617.501587 1335.024414,603.998474 
	C1338.089722,593.654968 1340.935425,583.184082 1342.881836,572.586670 
	C1345.458008,558.559753 1347.307739,544.383728 1349.006226,530.216248 
	C1350.393188,518.648132 1351.914795,506.999084 1351.921387,495.385132 
	C1351.931519,477.352905 1351.012085,459.300842 1349.890015,441.294373 
	C1349.191406,430.083313 1347.454712,418.933197 1346.075928,407.769043 
	C1343.387695,386.000183 1337.803467,364.909546 1331.215942,344.036102 
	C1322.793823,317.349884 1312.370117,291.506622 1298.673828,267.086700 
	C1290.698364,252.866821 1282.959717,238.391006 1273.583740,225.111130 
	C1261.912964,208.581024 1249.532104,192.367432 1235.860718,177.484436 
	C1220.992554,161.298737 1204.798828,146.214828 1188.217651,131.757767 
	C1176.495239,121.537041 1163.399048,112.815346 1150.481201,104.066444 
	C1139.957031,96.938599 1128.907959,90.553062 1117.860596,84.242630 
	C1111.127319,80.396393 1103.983521,77.259689 1096.974854,73.907242 
	C1089.823364,70.486511 1082.798462,66.686661 1075.388428,63.944256 
	C1058.611328,57.735313 1041.698730,51.869537 1024.703979,46.282127 
	C1016.747803,43.666328 1008.567810,41.472733 1000.323486,40.045319 
	C982.830627,37.016651 965.267273,34.318779 947.659058,32.060040 
	C935.616516,30.515263 923.451416,29.151520 911.337524,29.120419 
	C893.623352,29.074934 875.896851,30.124409 858.193726,31.052896 
	C849.658630,31.500546 841.098450,32.333355 832.669678,33.721119 
	C822.518921,35.392406 812.404846,37.483032 802.437256,40.027779 
	C784.541931,44.596508 766.424622,48.658070 749.031494,54.737919 
	C728.217651,62.013481 708.068970,71.052452 688.456421,81.413139 
	C666.193848,93.173767 645.352173,106.920166 625.344604,122.023514 
	C616.808533,128.467194 608.677551,135.487442 600.706055,142.629150 
	C590.515076,151.759323 580.051147,160.709045 570.835876,170.772293 
	C559.452454,183.203217 548.900391,196.443756 538.612122,209.813919 
	C530.351013,220.549728 522.681152,231.784744 515.389404,243.207092 
	C510.355225,251.092941 506.141144,259.543793 502.042816,267.976501 
	C494.766693,282.947845 487.252991,297.850739 480.970856,313.244263 
	C475.196289,327.394104 470.532837,342.037323 466.096771,356.680359 
	C462.772583,367.653198 460.101929,378.881348 458.018921,390.158112 
	C455.514313,403.717194 453.609985,417.410889 452.060486,431.115814 
	C450.603516,444.002167 449.017426,456.988678 449.151917,469.913788 
	C449.362885,490.188568 450.726990,510.465302 452.089203,530.708496 
	C452.819214,541.556946 453.675354,552.536926 456.048187,563.104187 
	C460.303131,582.053101 465.189178,600.905762 470.872986,619.473694 
	C475.213287,633.652710 481.068756,647.378235 486.471924,661.218994 
	C494.124939,680.822876 504.039459,699.323547 515.340149,717.011353 
	C523.316833,729.496521 531.781250,741.735901 540.880127,753.421509 
	C552.087830,767.815369 563.491577,782.180420 576.092468,795.329407 
	C587.803955,807.550171 601.244873,818.106995 613.843872,829.485413 
	C632.469666,846.306641 653.538147,859.692261 675.004211,872.399902 
	C686.636169,879.285950 698.831665,885.328552 711.146362,890.930603 
	C737.138672,902.754517 763.759705,913.008545 791.765320,919.053406 
	C806.153259,922.158875 820.812561,924.027710 835.165771,927.268127 
	C851.227112,930.894165 867.437134,931.882629 884.231140,932.798950 
	C894.215454,932.881531 904.199646,932.983948 914.184082,933.002014 
	C914.854187,933.003235 915.525452,932.366394 917.104492,932.116821 
z"/>
<path fill="#606A8C" opacity="1.000000" stroke="none" 
	d="
M883.783081,932.016663 
	C867.437134,931.882629 851.227112,930.894165 835.165771,927.268127 
	C820.812561,924.027710 806.153259,922.158875 791.765320,919.053406 
	C763.759705,913.008545 737.138672,902.754517 711.146362,890.930603 
	C698.831665,885.328552 686.636169,879.285950 675.004211,872.399902 
	C653.538147,859.692261 632.469666,846.306641 613.843872,829.485413 
	C601.244873,818.106995 587.803955,807.550171 576.092468,795.329407 
	C563.491577,782.180420 552.087830,767.815369 540.880127,753.421509 
	C531.781250,741.735901 523.316833,729.496521 515.340149,717.011353 
	C504.039459,699.323547 494.124939,680.822876 486.471924,661.218994 
	C481.068756,647.378235 475.213287,633.652710 470.872986,619.473694 
	C465.189178,600.905762 460.303131,582.053101 456.048187,563.104187 
	C453.675354,552.536926 452.819214,541.556946 452.089203,530.708496 
	C450.726990,510.465302 449.362885,490.188568 449.151917,469.913788 
	C449.017426,456.988678 450.603516,444.002167 452.060486,431.115814 
	C453.609985,417.410889 455.514313,403.717194 458.018921,390.158112 
	C460.101929,378.881348 462.772583,367.653198 466.096771,356.680359 
	C470.532837,342.037323 475.196289,327.394104 480.970856,313.244263 
	C487.252991,297.850739 494.766693,282.947845 502.042816,267.976501 
	C506.141144,259.543793 510.355225,251.092941 515.389404,243.207092 
	C522.681152,231.784744 530.351013,220.549728 538.612122,209.813919 
	C548.900391,196.443756 559.452454,183.203217 570.835876,170.772293 
	C580.051147,160.709045 590.515076,151.759323 600.706055,142.629150 
	C608.677551,135.487442 616.808533,128.467194 625.344604,122.023514 
	C645.352173,106.920166 666.193848,93.173767 688.456421,81.413139 
	C708.068970,71.052452 728.217651,62.013481 749.031494,54.737919 
	C766.424622,48.658070 784.541931,44.596508 802.437256,40.027779 
	C812.404846,37.483032 822.518921,35.392406 832.669678,33.721119 
	C841.098450,32.333355 849.658630,31.500546 858.193726,31.052896 
	C875.896851,30.124409 893.623352,29.074934 911.337524,29.120419 
	C923.451416,29.151520 935.616516,30.515263 947.659058,32.060040 
	C965.267273,34.318779 982.830627,37.016651 1000.323486,40.045319 
	C1008.567810,41.472733 1016.747803,43.666328 1024.703979,46.282127 
	C1041.698730,51.869537 1058.611328,57.735313 1075.388428,63.944256 
	C1082.798462,66.686661 1089.823364,70.486511 1096.974854,73.907242 
	C1103.983521,77.259689 1111.127319,80.396393 1117.860596,84.242630 
	C1128.907959,90.553062 1139.957031,96.938599 1150.481201,104.066444 
	C1163.399048,112.815346 1176.495239,121.537041 1188.217651,131.757767 
	C1204.798828,146.214828 1220.992554,161.298737 1235.860718,177.484436 
	C1249.532104,192.367432 1261.912964,208.581024 1273.583740,225.111130 
	C1282.959717,238.391006 1290.698364,252.866821 1298.673828,267.086700 
	C1312.370117,291.506622 1322.793823,317.349884 1331.215942,344.036102 
	C1337.803467,364.909546 1343.387695,386.000183 1346.075928,407.769043 
	C1347.454712,418.933197 1349.191406,430.083313 1349.890015,441.294373 
	C1351.012085,459.300842 1351.931519,477.352905 1351.921387,495.385132 
	C1351.914795,506.999084 1350.393188,518.648132 1349.006226,530.216248 
	C1347.307739,544.383728 1345.458008,558.559753 1342.881836,572.586670 
	C1340.935425,583.184082 1338.089722,593.654968 1335.024414,603.998474 
	C1331.022827,617.501587 1327.188110,631.142334 1321.865112,644.143799 
	C1314.978394,660.964294 1307.417847,677.602417 1298.807861,693.597961 
	C1290.084229,709.804993 1280.183105,725.438171 1269.932251,740.742981 
	C1262.645386,751.622253 1254.277954,761.843750 1245.749268,771.807983 
	C1235.645142,783.612671 1225.238770,795.217041 1214.226196,806.166626 
	C1205.990234,814.355469 1196.324463,821.085205 1187.759766,828.969238 
	C1173.016479,842.541077 1156.643799,853.859375 1139.515747,864.020386 
	C1125.553467,872.303406 1110.784180,879.215820 1096.694336,887.296936 
	C1078.336548,897.825989 1058.440796,904.662781 1038.497192,910.914185 
	C1019.432556,916.890015 999.665405,920.705200 980.096252,924.960388 
	C968.483276,927.485596 956.708496,929.470764 944.908020,930.864624 
	C935.719055,931.949890 926.377991,931.747131 916.180969,931.959229 
	C904.765991,931.873352 894.274536,931.945007 883.783081,932.016663 
M921.678833,164.425964 
	C915.922607,160.873764 910.197205,157.269440 904.377136,153.825165 
	C903.497559,153.304642 901.876892,153.028549 901.107300,153.488953 
	C894.781799,157.273041 888.576599,161.258148 882.216919,165.984085 
	C882.144348,167.332901 882.071777,168.681702 881.276855,169.861603 
	C879.086670,169.373123 876.288635,167.777298 874.811523,168.588028 
	C868.441772,172.084045 862.459167,176.285461 856.204895,181.129929 
	C856.175049,181.957962 856.104370,182.786880 856.121887,183.613907 
	C856.251221,189.728088 854.391296,197.016418 857.092773,201.631943 
	C859.905212,206.437286 866.787598,209.491348 872.498047,211.822937 
	C881.206055,215.378418 883.428345,221.335739 881.062622,229.983505 
	C877.346313,231.886551 873.629944,233.789581 869.215942,235.896240 
	C863.139648,239.253448 856.685059,242.085876 851.093567,246.115738 
	C845.520264,250.132523 840.055298,254.768158 835.899475,260.175232 
	C829.370300,268.670135 830.036316,278.176697 835.293030,287.312714 
	C836.777405,289.892548 838.691406,292.225159 840.375977,295.403809 
	C842.157471,299.807404 843.938965,304.210999 845.109619,308.944824 
	C840.415344,312.574677 835.213379,315.711548 831.121460,319.926178 
	C818.456360,332.971100 818.645386,349.722321 831.069153,363.002228 
	C832.870789,364.927948 834.581055,366.939117 835.767151,369.372864 
	C828.658569,379.812195 829.034485,391.016022 837.059631,403.619476 
	C839.866699,410.143585 842.777954,416.625946 845.419128,423.216522 
	C846.242432,425.271088 846.335571,427.618225 846.282776,430.313568 
	C841.687378,435.528687 841.471130,441.599945 842.455322,448.688721 
	C840.923889,456.348145 843.382874,462.623016 848.868896,468.009094 
	C850.331482,469.445099 851.230835,471.454803 852.207642,474.005280 
	C851.638245,477.580688 851.080688,481.158051 850.497559,484.731232 
	C845.111267,517.736511 839.756409,550.747070 834.316101,583.743408 
	C831.611023,600.149780 828.747070,616.529907 825.319031,633.156372 
	C820.217102,638.766602 815.115173,644.376892 809.320679,650.114563 
	C807.887512,650.938843 806.384888,651.663147 805.031433,652.602295 
	C783.968689,667.218079 769.604614,685.214111 774.324219,713.709778 
	C774.175415,721.525757 774.130493,729.345398 773.851135,737.156677 
	C773.510986,746.667664 775.795593,755.591309 781.529053,763.003784 
	C786.878845,769.919983 792.762207,776.737427 799.558716,782.159363 
	C816.993713,796.068054 837.552063,803.451172 859.275024,807.304871 
	C912.557434,816.757263 963.167053,812.123901 1008.348877,778.074280 
	C1009.595581,777.905884 1011.068604,778.111084 1012.055359,777.513550 
	C1029.673340,766.845337 1035.724487,756.997742 1033.914062,737.594116 
	C1033.228271,730.245117 1033.392944,722.247131 1040.875122,716.559937 
	C1067.651001,696.207886 1094.060791,675.375061 1120.759155,654.919983 
	C1130.626099,647.360291 1140.355591,639.782532 1153.642578,638.138062 
	C1159.788940,637.377319 1166.271973,633.741089 1169.281616,627.534851 
	C1171.056763,623.874329 1173.448730,622.851624 1176.832397,622.140747 
	C1186.613892,620.085693 1196.538940,618.447021 1206.057251,615.509766 
	C1211.380249,613.867126 1216.687866,610.689880 1220.732300,606.862183 
	C1223.922607,603.842896 1226.752319,602.245605 1231.002075,601.975769 
	C1236.787231,601.608337 1242.684082,601.216553 1248.265625,599.789673 
	C1259.861816,596.825012 1264.739868,588.724243 1262.203613,577.213257 
	C1261.303589,573.129028 1262.257324,571.509277 1266.453125,570.855164 
	C1275.164917,569.497131 1283.949951,568.202759 1292.433594,565.888062 
	C1303.758301,562.798096 1307.282104,554.879150 1303.092407,543.872925 
	C1302.386963,542.020020 1301.292114,540.317505 1300.410156,538.529236 
	C1298.093872,533.833069 1295.795776,529.127930 1293.490479,524.426331 
	C1293.852173,524.040588 1294.213745,523.654846 1294.575439,523.269165 
	C1297.778076,525.118408 1300.907104,527.116272 1304.214111,528.754822 
	C1305.892822,529.586609 1308.338257,530.710510 1309.667114,530.079956 
	C1314.612183,527.733154 1319.312500,524.831665 1323.952881,521.898193 
	C1326.388916,520.358276 1325.677246,518.557800 1323.490723,517.272522 
	C1320.481201,515.503418 1317.355835,513.926147 1314.393433,512.084229 
	C1312.758545,511.067749 1311.355591,509.678528 1309.848022,508.457306 
	C1311.163086,507.123047 1312.315796,505.556854 1313.825562,504.501007 
	C1317.374512,502.019165 1321.093872,499.781128 1325.629517,496.877747 
	C1319.827026,493.478119 1315.176514,490.948669 1310.741455,488.085358 
	C1307.862061,486.226349 1305.387817,486.050659 1302.455200,487.950012 
	C1298.966187,490.209778 1295.190674,492.022217 1291.626587,494.173004 
	C1288.713989,495.930511 1286.199219,495.626343 1283.260010,493.917908 
	C1267.186035,484.575134 1272.322388,485.284821 1255.284546,494.532776 
	C1252.017090,496.306396 1251.808472,498.345703 1254.986572,500.451630 
	C1257.613159,502.191956 1260.290283,503.855835 1263.828491,506.118591 
	C1262.055054,506.308563 1261.564575,506.464264 1261.108521,506.394928 
	C1246.635132,504.195343 1232.229004,500.859161 1217.679077,500.026093 
	C1197.582275,498.875458 1190.461060,502.092712 1182.562134,518.719666 
	C1179.470459,525.227600 1178.348022,525.484192 1171.177246,524.548767 
	C1160.459717,523.150635 1149.861816,523.612000 1139.684692,527.631958 
	C1133.149536,530.213440 1127.911743,534.381165 1127.201416,541.859619 
	C1126.794312,546.146790 1124.780640,547.500427 1120.977539,548.053101 
	C1113.743896,549.104370 1107.747070,552.344849 1103.685181,558.705750 
	C1100.368042,563.900269 1097.063843,569.114380 1093.462891,574.110046 
	C1092.297607,575.726685 1090.239014,577.714294 1088.540283,577.761169 
	C1079.795654,578.002686 1074.808350,583.334167 1070.068237,589.704041 
	C1067.344116,593.364990 1064.282715,597.666260 1060.364746,599.398804 
	C1039.349609,608.691956 1017.972412,617.162292 996.822632,626.157532 
	C990.608765,628.800354 984.729187,632.229065 978.153687,635.151184 
	C977.603638,635.018494 977.053528,634.885742 976.180786,634.021912 
	C975.799072,632.235596 975.351318,630.460449 975.045227,628.661255 
	C966.230652,576.840820 957.430298,525.018066 948.953125,472.553833 
	C950.450562,471.027527 951.903320,469.454163 953.453247,467.983185 
	C959.386169,462.352478 961.488647,455.624481 959.574829,446.827240 
	C960.536133,439.999969 959.206360,433.842621 954.322937,428.011292 
	C954.812500,426.281708 955.178345,424.505219 955.813416,422.830841 
	C958.198425,416.542572 960.671326,410.287567 963.028503,403.998260 
	C963.028503,403.998260 963.006836,404.081116 963.516296,403.912537 
	C963.776672,403.673889 964.037048,403.435242 964.777588,402.703918 
	C971.731506,391.087982 972.644043,379.469055 965.191162,367.307495 
	C966.607056,365.897491 968.067871,364.529541 969.431580,363.070770 
	C980.019470,351.744965 982.023315,339.489227 975.188965,326.970490 
	C970.634216,318.627472 963.259338,313.234711 955.169678,307.840973 
	C956.721252,303.844757 958.272766,299.848541 960.258789,295.333527 
	C961.397644,293.692566 962.591675,292.086823 963.666687,290.405060 
	C972.601501,276.427307 971.530823,264.409424 959.196106,253.347992 
	C953.459045,248.203156 946.298889,244.645187 939.995850,239.653534 
	C941.490112,238.202942 943.076416,236.833923 944.453430,235.279465 
	C945.923645,233.619904 948.282654,231.832031 948.360657,230.018753 
	C948.647034,223.360703 948.147217,216.668854 947.729919,209.352631 
	C939.563477,204.434753 931.397095,199.516876 923.098083,193.735504 
	C923.035400,190.584976 923.023804,187.432434 922.899292,184.284363 
	C922.644958,177.854324 922.329895,171.426682 921.678833,164.425964 
z"/>
<path fill="#E4E4E4" opacity="1.000000" stroke="none" 
	d="
M884.007080,932.407837 
	C894.274536,931.945007 904.765991,931.873352 915.726807,931.914001 
	C915.525452,932.366394 914.854187,933.003235 914.184082,933.002014 
	C904.199646,932.983948 894.215454,932.881531 884.007080,932.407837 
z"/>
<path fill="#49527E" opacity="1.000000" stroke="none" 
	d="
M978.696411,635.297607 
	C984.729187,632.229065 990.608765,628.800354 996.822632,626.157532 
	C1017.972412,617.162292 1039.349609,608.691956 1060.364746,599.398804 
	C1064.282715,597.666260 1067.344116,593.364990 1070.068237,589.704041 
	C1074.808350,583.334167 1079.795654,578.002686 1088.540283,577.761169 
	C1090.239014,577.714294 1092.297607,575.726685 1093.462891,574.110046 
	C1097.063843,569.114380 1100.368042,563.900269 1103.685181,558.705750 
	C1107.747070,552.344849 1113.743896,549.104370 1120.977539,548.053101 
	C1124.780640,547.500427 1126.794312,546.146790 1127.201416,541.859619 
	C1127.911743,534.381165 1133.149536,530.213440 1139.684692,527.631958 
	C1149.861816,523.612000 1160.459717,523.150635 1171.177246,524.548767 
	C1178.348022,525.484192 1179.470459,525.227600 1182.562134,518.719666 
	C1190.461060,502.092712 1197.582275,498.875458 1217.679077,500.026093 
	C1232.229004,500.859161 1246.635132,504.195343 1261.108521,506.394928 
	C1261.564575,506.464264 1262.055054,506.308563 1263.828491,506.118591 
	C1260.290283,503.855835 1257.613159,502.191956 1254.986572,500.451630 
	C1251.808472,498.345703 1252.017090,496.306396 1255.284546,494.532776 
	C1272.322388,485.284821 1267.186035,484.575134 1283.260010,493.917908 
	C1286.199219,495.626343 1288.713989,495.930511 1291.626587,494.173004 
	C1295.190674,492.022217 1298.966187,490.209778 1302.455200,487.950012 
	C1305.387817,486.050659 1307.862061,486.226349 1310.741455,488.085358 
	C1315.176514,490.948669 1319.827026,493.478119 1325.629517,496.877747 
	C1321.093872,499.781128 1317.374512,502.019165 1313.825562,504.501007 
	C1312.315796,505.556854 1311.163086,507.123047 1309.848022,508.457306 
	C1311.355591,509.678528 1312.758545,511.067749 1314.393433,512.084229 
	C1317.355835,513.926147 1320.481201,515.503418 1323.490723,517.272522 
	C1325.677246,518.557800 1326.388916,520.358276 1323.952881,521.898193 
	C1319.312500,524.831665 1314.612183,527.733154 1309.667114,530.079956 
	C1308.338257,530.710510 1305.892822,529.586609 1304.214111,528.754822 
	C1300.907104,527.116272 1297.778076,525.118408 1294.575439,523.269165 
	C1294.213745,523.654846 1293.852173,524.040588 1293.490479,524.426331 
	C1295.795776,529.127930 1298.093872,533.833069 1300.410156,538.529236 
	C1301.292114,540.317505 1302.386963,542.020020 1303.092407,543.872925 
	C1307.282104,554.879150 1303.758301,562.798096 1292.433594,565.888062 
	C1283.949951,568.202759 1275.164917,569.497131 1266.453125,570.855164 
	C1262.257324,571.509277 1261.303589,573.129028 1262.203613,577.213257 
	C1264.739868,588.724243 1259.861816,596.825012 1248.265625,599.789673 
	C1242.684082,601.216553 1236.787231,601.608337 1231.002075,601.975769 
	C1226.752319,602.245605 1223.922607,603.842896 1220.732300,606.862183 
	C1216.687866,610.689880 1211.380249,613.867126 1206.057251,615.509766 
	C1196.538940,618.447021 1186.613892,620.085693 1176.832397,622.140747 
	C1173.448730,622.851624 1171.056763,623.874329 1169.281616,627.534851 
	C1166.271973,633.741089 1159.788940,637.377319 1153.642578,638.138062 
	C1140.355591,639.782532 1130.626099,647.360291 1120.759155,654.919983 
	C1094.060791,675.375061 1067.651001,696.207886 1040.875122,716.559937 
	C1033.392944,722.247131 1033.228271,730.245117 1033.914062,737.594116 
	C1035.724487,756.997742 1029.673340,766.845337 1012.055359,777.513550 
	C1011.068604,778.111084 1009.595581,777.905884 1008.251587,777.631714 
	C1028.218384,760.041748 1028.924927,737.342285 1026.433594,713.260132 
	C1026.281860,706.249634 1026.058960,699.684326 1025.878418,692.726562 
	C1021.188354,672.607666 1008.147156,659.800293 990.888184,650.119934 
	C986.745667,644.987610 982.721008,640.142639 978.696411,635.297607 
z"/>
<path fill="#E4E4E4" opacity="1.000000" stroke="none" 
	d="
M948.627625,473.195618 
	C957.430298,525.018066 966.230652,576.840820 975.045227,628.661255 
	C975.351318,630.460449 975.799072,632.235596 976.286255,634.805176 
	C977.336792,643.977783 978.281799,652.367249 979.088135,661.105896 
	C973.901428,675.073486 963.992737,683.968323 951.129761,689.924927 
	C929.388977,699.992676 906.613892,702.833862 882.983276,699.485962 
	C868.848877,697.483459 855.182861,693.831238 843.144470,685.938171 
	C829.145691,676.760010 820.082764,664.864563 823.940552,646.716003 
	C824.904785,642.180176 825.298889,637.523254 825.954956,632.921936 
	C828.747070,616.529907 831.611023,600.149780 834.316101,583.743408 
	C839.756409,550.747070 845.111267,517.736511 850.497559,484.731232 
	C851.080688,481.158051 851.638245,477.580688 852.658936,473.539917 
	C854.375244,473.381165 855.725098,473.498596 856.893005,474.022095 
	C886.184509,487.151978 915.492310,487.270538 944.856873,474.273041 
	C946.040771,473.748993 947.367493,473.547424 948.627625,473.195618 
z"/>
<path fill="#E3E3E3" opacity="1.000000" stroke="none" 
	d="
M1025.836060,693.118958 
	C1026.058960,699.684326 1026.281860,706.249634 1026.168213,713.455139 
	C1023.342468,718.787109 1021.291748,723.783752 1018.282898,728.114624 
	C1008.602112,742.049011 995.017944,751.215027 979.857483,758.236084 
	C948.962952,772.543762 916.280762,776.039673 882.784729,773.573792 
	C858.822571,771.809875 835.756836,766.140015 814.452148,754.676025 
	C799.733521,746.756042 786.857300,736.665344 778.954590,721.383240 
	C777.512878,718.595337 776.123352,715.780396 774.709656,712.977966 
	C769.604614,685.214111 783.968689,667.218079 805.031433,652.602295 
	C806.384888,651.663147 807.887512,650.938843 809.558594,650.411865 
	C808.824768,658.736328 807.853027,666.763428 806.874268,675.281250 
	C807.512329,683.171875 806.815430,691.026062 809.128967,697.861206 
	C812.305786,707.246948 819.402405,714.419312 827.689880,720.172791 
	C845.031311,732.211975 864.598206,737.653625 885.286682,739.504517 
	C912.131897,741.906250 938.291931,739.161377 962.606445,726.647278 
	C978.862488,718.280518 992.171997,707.118591 994.114746,687.127869 
	C994.460022,683.574585 996.722595,683.832947 999.187073,684.615356 
	C1008.074280,687.436646 1016.953674,690.282410 1025.836060,693.118958 
z"/>
<path fill="#ADADAE" opacity="1.000000" stroke="none" 
	d="
M774.516968,713.343872 
	C776.123352,715.780396 777.512878,718.595337 778.954590,721.383240 
	C786.857300,736.665344 799.733521,746.756042 814.452148,754.676025 
	C835.756836,766.140015 858.822571,771.809875 882.784729,773.573792 
	C916.280762,776.039673 948.962952,772.543762 979.857483,758.236084 
	C995.017944,751.215027 1008.602112,742.049011 1018.282898,728.114624 
	C1021.291748,723.783752 1023.342468,718.787109 1026.097168,713.900269 
	C1028.924927,737.342285 1028.218384,760.041748 1007.967957,777.461304 
	C963.167053,812.123901 912.557434,816.757263 859.275024,807.304871 
	C837.552063,803.451172 816.993713,796.068054 799.558716,782.159363 
	C792.762207,776.737427 786.878845,769.919983 781.529053,763.003784 
	C775.795593,755.591309 773.510986,746.667664 773.851135,737.156677 
	C774.130493,729.345398 774.175415,721.525757 774.516968,713.343872 
z"/>
<path fill="#E3E3E3" opacity="1.000000" stroke="none" 
	d="
M840.408447,294.671143 
	C838.691406,292.225159 836.777405,289.892548 835.293030,287.312714 
	C830.036316,278.176697 829.370300,268.670135 835.899475,260.175232 
	C840.055298,254.768158 845.520264,250.132523 851.093567,246.115738 
	C856.685059,242.085876 863.139648,239.253448 869.605591,236.084656 
	C869.656982,237.180878 869.424500,238.146652 868.963684,238.987274 
	C865.432312,245.429199 866.480957,251.440048 872.051453,256.390717 
	C885.384155,268.240051 914.993896,268.192474 928.346313,256.410614 
	C932.835266,252.449585 935.058838,247.864990 933.868835,241.584076 
	C936.021667,240.999680 937.902771,240.683777 939.783813,240.367874 
	C946.298889,244.645187 953.459045,248.203156 959.196106,253.347992 
	C971.530823,264.409424 972.601501,276.427307 963.666687,290.405060 
	C962.591675,292.086823 961.397644,293.692566 959.707397,295.668457 
	C954.481689,298.859070 950.054321,302.269043 945.092407,304.478577 
	C917.276428,316.865051 889.094360,316.104767 861.043152,305.473236 
	C853.835571,302.741516 847.269287,298.317657 840.408447,294.671143 
z"/>
<path fill="#E3E3E3" opacity="1.000000" stroke="none" 
	d="
M836.333557,368.910706 
	C834.581055,366.939117 832.870789,364.927948 831.069153,363.002228 
	C818.645386,349.722321 818.456360,332.971100 831.121460,319.926178 
	C835.213379,315.711548 840.415344,312.574677 845.739807,308.953613 
	C847.473572,310.389038 848.768799,311.707336 849.647461,313.261200 
	C853.492615,320.061584 857.429871,326.823517 860.929565,333.802063 
	C864.973755,341.866241 870.651550,348.141968 879.139832,351.368256 
	C891.999390,356.255920 905.153809,356.525574 918.295105,352.627563 
	C927.676208,349.844849 934.498779,343.866760 939.010132,335.099182 
	C942.658752,328.008392 946.575073,321.048981 950.580994,314.152313 
	C951.787048,312.075897 953.690796,310.404785 955.274902,308.548035 
	C963.259338,313.234711 970.634216,318.627472 975.188965,326.970490 
	C982.023315,339.489227 980.019470,351.744965 969.431580,363.070770 
	C968.067871,364.529541 966.607056,365.897491 964.674194,367.690765 
	C958.780579,371.392395 953.403931,374.710754 947.664612,378.108490 
	C926.672668,385.907776 905.421448,389.167816 883.559448,385.820221 
	C873.571594,384.290894 863.796265,381.373444 853.670898,378.858337 
	C847.722656,375.391022 842.028137,372.150879 836.333557,368.910706 
z"/>
<path fill="#C8C9C8" opacity="1.000000" stroke="none" 
	d="
M806.881348,674.790527 
	C807.853027,666.763428 808.824768,658.736328 809.904907,650.348206 
	C815.115173,644.376892 820.217102,638.766602 825.637024,633.039185 
	C825.298889,637.523254 824.904785,642.180176 823.940552,646.716003 
	C820.082764,664.864563 829.145691,676.760010 843.144470,685.938171 
	C855.182861,693.831238 868.848877,697.483459 882.983276,699.485962 
	C906.613892,702.833862 929.388977,699.992676 951.129761,689.924927 
	C963.992737,683.968323 973.901428,675.073486 979.445435,661.164429 
	C984.235229,662.761902 988.528992,664.650085 992.958618,666.843689 
	C993.128479,668.923584 993.555664,670.798096 993.133728,672.456482 
	C990.019836,684.695435 982.439392,693.694702 972.048706,700.437073 
	C950.700989,714.289307 926.774475,719.274841 901.819702,719.818665 
	C884.239014,720.201782 867.012024,717.255188 850.463135,711.142334 
	C832.677856,704.572754 817.276855,694.988708 808.934021,676.884766 
	C808.548828,676.048889 807.578918,675.482483 806.881348,674.790527 
z"/>
<path fill="#ADAEAE" opacity="1.000000" stroke="none" 
	d="
M948.027222,378.029114 
	C953.403931,374.710754 958.780579,371.392395 964.476074,367.959900 
	C972.644043,379.469055 971.731506,391.087982 964.362061,402.953613 
	C963.633301,403.495941 963.320068,403.788513 963.006836,404.081116 
	C963.006836,404.081116 963.028503,403.998260 962.731812,404.094421 
	C954.612549,408.800568 947.177063,414.329285 938.884216,417.823090 
	C923.165161,424.445618 906.496765,425.687988 889.500305,424.155579 
	C873.618591,422.723755 858.890503,418.302582 845.628845,409.364105 
	C842.623901,407.338776 839.798950,405.046509 836.891174,402.877075 
	C829.034485,391.016022 828.658569,379.812195 836.050354,369.141785 
	C842.028137,372.150879 847.722656,375.391022 853.762634,379.196838 
	C857.207275,387.780273 863.339233,392.803436 871.028931,395.756836 
	C889.790955,402.962830 908.912170,402.874115 927.830750,396.694519 
	C937.101624,393.666229 944.547119,387.766113 948.027222,378.029114 
z"/>
<path fill="#ADAEAE" opacity="1.000000" stroke="none" 
	d="
M955.222290,308.194519 
	C953.690796,310.404785 951.787048,312.075897 950.580994,314.152313 
	C946.575073,321.048981 942.658752,328.008392 939.010132,335.099182 
	C934.498779,343.866760 927.676208,349.844849 918.295105,352.627563 
	C905.153809,356.525574 891.999390,356.255920 879.139832,351.368256 
	C870.651550,348.141968 864.973755,341.866241 860.929565,333.802063 
	C857.429871,326.823517 853.492615,320.061584 849.647461,313.261200 
	C848.768799,311.707336 847.473572,310.389038 846.045288,308.788483 
	C843.938965,304.210999 842.157471,299.807404 840.392212,295.037476 
	C847.269287,298.317657 853.835571,302.741516 861.043152,305.473236 
	C889.094360,316.104767 917.276428,316.865051 945.092407,304.478577 
	C950.054321,302.269043 954.481689,298.859070 959.490112,295.927856 
	C958.272766,299.848541 956.721252,303.844757 955.222290,308.194519 
z"/>
<path fill="#C7C7C8" opacity="1.000000" stroke="none" 
	d="
M836.975403,403.248291 
	C839.798950,405.046509 842.623901,407.338776 845.628845,409.364105 
	C858.890503,418.302582 873.618591,422.723755 889.500305,424.155579 
	C906.496765,425.687988 923.165161,424.445618 938.884216,417.823090 
	C947.177063,414.329285 954.612549,408.800568 962.773193,404.105347 
	C960.671326,410.287567 958.198425,416.542572 955.813416,422.830841 
	C955.178345,424.505219 954.812500,426.281708 954.021240,428.599365 
	C949.043640,435.633453 944.436768,442.024200 936.870178,445.650238 
	C921.081970,453.216217 904.578857,455.462097 887.406372,452.731689 
	C872.159180,450.307465 857.828918,446.001953 849.074463,431.632477 
	C848.599121,430.852295 847.546692,430.423706 846.762878,429.831451 
	C846.335571,427.618225 846.242432,425.271088 845.419128,423.216522 
	C842.777954,416.625946 839.866699,410.143585 836.975403,403.248291 
z"/>
<path fill="#E2E2E2" opacity="1.000000" stroke="none" 
	d="
M881.746704,229.770874 
	C883.428345,221.335739 881.206055,215.378418 872.498047,211.822937 
	C866.787598,209.491348 859.905212,206.437286 857.092773,201.631943 
	C854.391296,197.016418 856.251221,189.728088 856.121887,183.613907 
	C856.104370,182.786880 856.175049,181.957962 856.598022,180.735413 
	C864.919250,184.512512 872.847290,188.684143 881.999268,193.499771 
	C881.999268,184.786682 881.999268,177.408600 881.999268,170.030518 
	C882.071777,168.681702 882.144348,167.332901 882.602417,165.646133 
	C889.520996,168.885300 896.054016,172.462418 902.591492,176.505127 
	C902.542297,184.673843 902.398438,192.378189 902.501160,200.079239 
	C902.525696,201.916611 903.373291,203.742996 903.971985,205.865204 
	C912.207092,210.790375 920.312622,215.424759 928.449707,220.467407 
	C928.490417,228.239502 928.499512,235.603363 928.163086,242.965744 
	C925.882874,242.302582 923.948303,241.640884 921.747864,240.765701 
	C915.567139,237.034302 909.652161,233.516388 902.294983,229.140686 
	C902.294983,239.712708 902.294983,248.864487 901.910278,258.017853 
	C895.822388,254.970428 890.006714,252.105637 884.496399,248.740753 
	C883.146057,247.916199 882.242004,245.503769 882.090881,243.739304 
	C881.694153,239.107300 881.825684,234.430084 881.746704,229.770874 
z"/>
<path fill="#E2E2E2" opacity="1.000000" stroke="none" 
	d="
M846.522827,430.072510 
	C847.546692,430.423706 848.599121,430.852295 849.074463,431.632477 
	C857.828918,446.001953 872.159180,450.307465 887.406372,452.731689 
	C904.578857,455.462097 921.081970,453.216217 936.870178,445.650238 
	C944.436768,442.024200 949.043640,435.633453 954.002197,428.961487 
	C959.206360,433.842621 960.536133,439.999969 959.213257,447.406921 
	C952.293945,457.548462 942.985901,463.351410 931.960815,465.746429 
	C899.770691,472.739166 868.355591,474.846313 842.829285,447.978973 
	C841.471130,441.599945 841.687378,435.528687 846.522827,430.072510 
z"/>
<path fill="#ADAEAE" opacity="1.000000" stroke="none" 
	d="
M842.642334,448.333862 
	C868.355591,474.846313 899.770691,472.739166 931.960815,465.746429 
	C942.985901,463.351410 952.293945,457.548462 959.121338,447.822571 
	C961.488647,455.624481 959.386169,462.352478 953.453247,467.983185 
	C951.903320,469.454163 950.450562,471.027527 948.790405,472.874725 
	C947.367493,473.547424 946.040771,473.748993 944.856873,474.273041 
	C915.492310,487.270538 886.184509,487.151978 856.893005,474.022095 
	C855.725098,473.498596 854.375244,473.381165 852.749512,473.137817 
	C851.230835,471.454803 850.331482,469.445099 848.868896,468.009094 
	C843.382874,462.623016 840.923889,456.348145 842.642334,448.333862 
z"/>
<path fill="#ACADAD" opacity="1.000000" stroke="none" 
	d="
M881.404663,229.877197 
	C881.825684,234.430084 881.694153,239.107300 882.090881,243.739304 
	C882.242004,245.503769 883.146057,247.916199 884.496399,248.740753 
	C890.006714,252.105637 895.822388,254.970428 902.271606,258.007874 
	C907.451904,255.780807 911.838989,253.463776 916.333496,251.378265 
	C920.869385,249.273529 922.885315,245.956482 922.013672,240.979202 
	C923.948303,241.640884 925.882874,242.302582 928.545898,242.942886 
	C930.715210,242.565186 932.156128,242.208878 933.597046,241.852570 
	C935.058838,247.864990 932.835266,252.449585 928.346313,256.410614 
	C914.993896,268.192474 885.384155,268.240051 872.051453,256.390717 
	C866.480957,251.440048 865.432312,245.429199 868.963684,238.987274 
	C869.424500,238.146652 869.656982,237.180878 869.954468,235.982849 
	C873.629944,233.789581 877.346313,231.886551 881.404663,229.877197 
z"/>
<path fill="#ACADAD" opacity="1.000000" stroke="none" 
	d="
M928.418091,220.059143 
	C920.312622,215.424759 912.207092,210.790375 904.232666,205.595764 
	C910.652710,201.556686 916.941650,198.077866 923.230652,194.599014 
	C931.397095,199.516876 939.563477,204.434753 947.502991,209.766693 
	C940.990051,213.473572 934.704102,216.766357 928.418091,220.059143 
z"/>
<path fill="#8B8C8B" opacity="1.000000" stroke="none" 
	d="
M923.164368,194.167267 
	C916.941650,198.077866 910.652710,201.556686 904.103027,205.304977 
	C903.373291,203.742996 902.525696,201.916611 902.501160,200.079239 
	C902.398438,192.378189 902.542297,184.673843 902.919067,176.336273 
	C909.508057,172.133926 915.773987,168.565994 922.039856,164.998047 
	C922.329895,171.426682 922.644958,177.854324 922.899292,184.284363 
	C923.023804,187.432434 923.035400,190.584976 923.164368,194.167267 
z"/>
<path fill="#ACADAD" opacity="1.000000" stroke="none" 
	d="
M921.859375,164.712006 
	C915.773987,168.565994 909.508057,172.133926 902.914673,175.870697 
	C896.054016,172.462418 889.520996,168.885300 882.661377,165.245239 
	C888.576599,161.258148 894.781799,157.273041 901.107300,153.488953 
	C901.876892,153.028549 903.497559,153.304642 904.377136,153.825165 
	C910.197205,157.269440 915.922607,160.873764 921.859375,164.712006 
z"/>
<path fill="#8F8F8F" opacity="1.000000" stroke="none" 
	d="
M928.449707,220.467407 
	C934.704102,216.766357 940.990051,213.473572 947.609680,210.085236 
	C948.147217,216.668854 948.647034,223.360703 948.360657,230.018753 
	C948.282654,231.832031 945.923645,233.619904 944.453430,235.279465 
	C943.076416,236.833923 941.490112,238.202942 939.889832,240.010712 
	C937.902771,240.683777 936.021667,240.999680 933.868835,241.584076 
	C932.156128,242.208878 930.715210,242.565186 928.891479,242.944351 
	C928.499512,235.603363 928.490417,228.239502 928.449707,220.467407 
z"/>
<path fill="#ACADAD" opacity="1.000000" stroke="none" 
	d="
M881.638062,169.946060 
	C881.999268,177.408600 881.999268,184.786682 881.999268,193.499771 
	C872.847290,188.684143 864.919250,184.512512 856.663391,180.285492 
	C862.459167,176.285461 868.441772,172.084045 874.811523,168.588028 
	C876.288635,167.777298 879.086670,169.373123 881.638062,169.946060 
z"/>
<path fill="#979797" opacity="1.000000" stroke="none" 
	d="
M992.822815,666.538208 
	C988.528992,664.650085 984.235229,662.761902 979.584106,660.815186 
	C978.281799,652.367249 977.336792,643.977783 976.447632,635.170715 
	C977.053528,634.885742 977.603638,635.018494 978.425049,635.224365 
	C982.721008,640.142639 986.745667,644.987610 991.024292,650.502686 
	C992.976379,656.175659 995.370300,661.108582 992.822815,666.538208 
z"/>
<path fill="#C7C7C8" opacity="1.000000" stroke="none" 
	d="
M963.261597,403.996826 
	C963.320068,403.788513 963.633301,403.495941 964.122009,403.199951 
	C964.037048,403.435242 963.776672,403.673889 963.261597,403.996826 
z"/>
<path fill="#ADAEAE" opacity="1.000000" stroke="none" 
	d="
M992.958618,666.843689 
	C995.370300,661.108582 992.976379,656.175659 991.142090,650.790039 
	C1008.147156,659.800293 1021.188354,672.607666 1025.878418,692.726562 
	C1016.953674,690.282410 1008.074280,687.436646 999.187073,684.615356 
	C996.722595,683.832947 994.460022,683.574585 994.114746,687.127869 
	C992.171997,707.118591 978.862488,718.280518 962.606445,726.647278 
	C938.291931,739.161377 912.131897,741.906250 885.286682,739.504517 
	C864.598206,737.653625 845.031311,732.211975 827.689880,720.172791 
	C819.402405,714.419312 812.305786,707.246948 809.128967,697.861206 
	C806.815430,691.026062 807.512329,683.171875 806.874268,675.281250 
	C807.578918,675.482483 808.548828,676.048889 808.934021,676.884766 
	C817.276855,694.988708 832.677856,704.572754 850.463135,711.142334 
	C867.012024,717.255188 884.239014,720.201782 901.819702,719.818665 
	C926.774475,719.274841 950.700989,714.289307 972.048706,700.437073 
	C982.439392,693.694702 990.019836,684.695435 993.133728,672.456482 
	C993.555664,670.798096 993.128479,668.923584 992.958618,666.843689 
z"/>
<path fill="#C8C9C8" opacity="1.000000" stroke="none" 
	d="
M947.664612,378.108490 
	C944.547119,387.766113 937.101624,393.666229 927.830750,396.694519 
	C908.912170,402.874115 889.790955,402.962830 871.028931,395.756836 
	C863.339233,392.803436 857.207275,387.780273 854.016296,379.424011 
	C863.796265,381.373444 873.571594,384.290894 883.559448,385.820221 
	C905.421448,389.167816 926.672668,385.907776 947.664612,378.108490 
z"/>
<path fill="#8F8F8F" opacity="1.000000" stroke="none" 
	d="
M921.747864,240.765701 
	C922.885315,245.956482 920.869385,249.273529 916.333496,251.378265 
	C911.838989,253.463776 907.451904,255.780807 902.656372,258.006287 
	C902.294983,248.864487 902.294983,239.712708 902.294983,229.140686 
	C909.652161,233.516388 915.567139,237.034302 921.747864,240.765701 
z"/>
</svg>